<!-- <svg xmlns="http://www.w3.org/2000/svg" viewBox="0 0 841.9 595.3">
    <g fill="#61DAFB">
        <path d="M666.3 296.5c0-32.5-40.7-63.3-103.1-82.4 14.4-63.6 8-114.2-20.2-130.4-6.5-3.8-14.1-5.6-22.4-5.6v22.3c4.6 0 8.3.9 11.4 2.6 13.6 7.8 19.5 37.5 14.9 75.7-1.1 9.4-2.9 19.3-5.1 29.4-19.6-4.8-41-8.5-63.5-10.9-13.5-18.5-27.5-35.3-41.6-50 32.6-30.3 63.2-46.9 84-46.9V78c-27.5 0-63.5 19.6-99.9 53.6-36.4-33.8-72.4-53.2-99.9-53.2v22.3c20.7 0 51.4 16.5 84 46.6-14 14.7-28 31.4-41.3 49.9-22.6 2.4-44 6.1-63.6 11-2.3-10-4-19.7-5.2-29-4.7-38.2 1.1-67.9 14.6-75.8 3-1.8 6.9-2.6 11.5-2.6V78.5c-8.4 0-16 1.8-22.6 5.6-28.1 16.2-34.4 66.7-19.9 130.1-62.2 19.2-102.7 49.9-102.7 82.3 0 32.5 40.7 63.3 103.1 82.4-14.4 63.6-8 114.2 20.2 130.4 6.5 3.8 14.1 5.6 22.5 5.6 27.5 0 63.5-19.6 99.9-53.6 36.4 33.8 72.4 53.2 99.9 53.2 8.4 0 16-1.8 22.6-5.6 28.1-16.2 34.4-66.7 19.9-130.1 62-19.1 102.5-49.9 102.5-82.3zm-130.2-66.7c-3.7 12.9-8.3 26.2-13.5 39.5-4.1-8-8.4-16-13.1-24-4.6-8-9.5-15.8-14.4-23.4 14.2 2.1 27.9 4.7 41 7.9zm-45.8 106.5c-7.8 13.5-15.8 26.3-24.1 38.2-14.9 1.3-30 2-45.2 2-15.1 0-30.2-.7-45-1.9-8.3-11.9-16.4-24.6-24.2-38-7.6-13.1-14.5-26.4-20.8-39.8 6.2-13.4 13.2-26.8 20.7-39.9 7.8-13.5 15.8-26.3 24.1-38.2 14.9-1.3 30-2 45.2-2 15.1 0 30.2.7 45 1.9 8.3 11.9 16.4 24.6 24.2 38 7.6 13.1 14.5 26.4 20.8 39.8-6.3 13.4-13.2 26.8-20.7 39.9zm32.3-13c5.4 13.4 10 26.8 13.8 39.8-13.1 3.2-26.9 5.9-41.2 8 4.9-7.7 9.8-15.6 14.4-23.7 4.6-8 8.9-16.1 13-24.1zM421.2 430c-9.3-9.6-18.6-20.3-27.8-32 9 .4 18.2.7 27.5.7 9.4 0 18.7-.2 27.8-.7-9 11.7-18.3 22.4-27.5 32zm-74.4-58.9c-14.2-2.1-27.9-4.7-41-7.9 3.7-12.9 8.3-26.2 13.5-39.5 4.1 8 8.4 16 13.1 24 4.7 8 9.5 15.8 14.4 23.4zM420.7 163c9.3 9.6 18.6 20.3 27.8 32-9-.4-18.2-.7-27.5-.7-9.4 0-18.7.2-27.8.7 9-11.7 18.3-22.4 27.5-32zm-74 58.9c-4.9 7.7-9.8 15.6-14.4 23.7-4.6 8-8.9 16-13 24-5.4-13.4-10-26.8-13.8-39.8 13.1-3.1 26.9-5.8 41.2-7.9zm-90.5 125.2c-35.4-15.1-58.3-34.9-58.3-50.6 0-15.7 22.9-35.6 58.3-50.6 8.6-3.7 18-7 27.7-10.1 5.7 19.6 13.2 40 22.5 60.9-9.2 20.8-16.6 41.1-22.2 60.6-9.9-3.1-19.3-6.5-28-10.2zM310 490c-13.6-7.8-19.5-37.5-14.9-75.7 1.1-9.4 2.9-19.3 5.1-29.4 19.6 4.8 41 8.5 63.5 10.9 13.5 18.5 27.5 35.3 41.6 50-32.6 30.3-63.2 46.9-84 46.9-4.5-.1-8.3-1-11.3-2.7zm237.2-76.2c4.7 38.2-1.1 67.9-14.6 75.8-3 1.8-6.9 2.6-11.5 2.6-20.7 0-51.4-16.5-84-46.6 14-14.7 28-31.4 41.3-49.9 22.6-2.4 44-6.1 63.6-11 2.3 10.1 4.1 19.8 5.2 29.1zm38.5-66.7c-8.6 3.7-18 7-27.7 10.1-5.7-19.6-13.2-40-22.5-60.9 9.2-20.8 16.6-41.1 22.2-60.6 9.9 3.1 19.3 6.5 28.1 10.2 35.4 15.1 58.3 34.9 58.3 50.6-.1 15.7-23 35.6-58.4 50.6zM320.8 78.4z"/>
        <circle cx="420.9" cy="296.5" r="45.7"/>
        <path d="M520.5 78.1z"/>
    </g>
</svg> -->

<svg>
<g fill="#61DAFB">
<path d="M10.155 20.606a5.494 5.494 0 0 1-2.345.515c-3.317 0-5.292-1.8-5.292-5.31V9.534H.288V6.507h2.23V2.911L6.065.686v5.821h3.803v3.027H6.065v6.22c0 1.713.629 2.34 1.888 2.34.486 0 .943-.113 1.373-.343l.83 2.855M14.533.686h3.546V8.82c1.059-1.683 2.605-2.541 4.577-2.541 2.775 0 4.49 1.484 4.49 4.337V20.89H23.6v-9.02c0-1.71-.715-2.566-2.146-2.566-1.83 0-3.375 1.882-3.375 5.507v6.079h-3.546V.686M32.327.742c.887-.885 2.372-.885 3.26 0 .889.885.889 2.367 0 3.253a2.33 2.33 0 0 1-3.26 0 2.32 2.32 0 0 1 0-3.253zm-.143 20.148h3.545V6.506h-3.545V20.89zM50.175 8.619L48.06 10.56c-.659-.827-1.46-1.256-2.402-1.256-.715 0-1.317.429-1.317 1.197 0 .6.459 1.057 1.372 1.398l1.03.373 1.229.427c.23.088.573.287 1.032.544.485.256.829.484 1.03.74.428.485.885 1.343.885 2.341 0 1.342-.485 2.455-1.43 3.397-.944.942-2.174 1.399-3.689 1.399-1.373 0-2.575-.4-3.578-1.17-1-.77-1.714-1.685-2.144-2.713l2.832-1.511c.57 1.57 1.544 2.367 2.89 2.367 1.173 0 1.773-.513 1.773-1.54 0-.457-.229-.827-.772-1.085a4.822 4.822 0 0 0-.803-.343c-.485-.228-1.485-.54-2.03-.77-1.83-.77-2.916-1.827-2.916-3.881 0-1.17.43-2.141 1.287-2.97.857-.827 1.972-1.226 3.319-1.226 1.915 0 3.602.941 4.517 2.34M54.61 13.7c0-2.14.659-3.911 1.974-5.31 1.318-1.397 3.09-2.111 5.35-2.111s4.031.714 5.35 2.112c1.314 1.398 1.973 3.169 1.973 5.308 0 2.141-.66 3.94-1.973 5.337-1.319 1.398-3.09 2.085-5.35 2.085s-4.032-.687-5.35-2.085C55.27 17.638 54.61 15.84 54.61 13.7m3.72 0c0 1.228.314 2.283.971 3.14.66.828 1.517 1.256 2.632 1.256 1.116 0 1.975-.428 2.631-1.256.659-.857.973-1.912.973-3.14 0-1.227-.314-2.282-.973-3.11-.656-.857-1.515-1.284-2.63-1.284-1.116 0-1.973.427-2.633 1.284-.657.828-.971 1.883-.971 3.11M77.696 19.578v7.135H74.15V6.508h3.547V7.99c.458-.827 1.86-1.712 3.489-1.712 4.233 0 6.58 2.884 6.58 7.42 0 4.54-2.347 7.422-6.58 7.422-1.401 0-2.83-.714-3.489-1.542m6.348-5.88c0-1.369-.313-2.453-.942-3.223-.63-.773-1.43-1.17-2.402-1.17-.971 0-1.774.397-2.404 1.17-.6.77-.916 1.827-.916 3.223 0 1.4.316 2.484.916 3.255.63.77 1.433 1.14 2.404 1.14.972 0 1.773-.397 2.402-1.168.63-.77.942-1.856.942-3.227M105.502 14.842h-9.928c.088 1.739 1.347 3.252 3.405 3.252 1.458 0 2.632-.743 3.49-2.227l2.861 1.06c-1.233 2.794-3.404 4.194-6.55 4.194-4.951 0-6.923-3.998-6.923-7.422 0-3.425 1.972-7.42 6.922-7.42 2.287 0 4.147.942 5.177 2.398a7.991 7.991 0 0 1 1.546 4.71v1.455zm-9.84-2.799h6.205c-.4-1.825-1.43-2.738-3.088-2.738-1.688 0-2.861 1.227-3.117 2.738zM110.165 6.507h3.547V8.82c1.172-1.685 2.66-2.541 4.462-2.541 2.66 0 4.434 1.513 4.434 4.337v10.275h-3.547v-9.218c0-1.57-.688-2.367-2.06-2.367-1.83 0-3.29 2.225-3.29 5.848v5.737h-3.546V6.507M136.969 8.619l-2.117 1.942c-.656-.827-1.46-1.256-2.404-1.256-.713 0-1.313.429-1.313 1.197 0 .6.456 1.057 1.374 1.398l1.028.373 1.23.427c.23.088.574.287 1.03.544.486.256.83.484 1.03.74.427.485.885 1.343.885 2.341 0 1.342-.485 2.455-1.429 3.397-.942.942-2.175 1.399-3.69 1.399-1.374 0-2.576-.4-3.575-1.17-1.002-.77-1.715-1.685-2.145-2.713l2.83-1.511c.574 1.57 1.545 2.367 2.89 2.367 1.173 0 1.773-.513 1.773-1.54 0-.457-.227-.827-.77-1.085a4.965 4.965 0 0 0-.804-.343c-.486-.228-1.487-.54-2.03-.77-1.83-.77-2.916-1.827-2.916-3.881 0-1.17.428-2.141 1.284-2.97.86-.827 1.976-1.226 3.318-1.226 1.918 0 3.606.941 4.521 2.34M146.152 19.578v7.135h-3.548V6.508h3.548V7.99c.457-.827 1.86-1.712 3.49-1.712 4.233 0 6.58 2.884 6.58 7.42 0 4.54-2.347 7.422-6.58 7.422-1.401 0-2.832-.714-3.49-1.542m6.351-5.88c0-1.369-.314-2.453-.944-3.223-.63-.773-1.43-1.17-2.404-1.17-.971 0-1.772.397-2.404 1.17-.6.77-.912 1.827-.912 3.223 0 1.4.313 2.484.912 3.255.632.77 1.433 1.14 2.404 1.14.974 0 1.775-.397 2.404-1.168.63-.77.944-1.856.944-3.227M160.572 10.274c.457-2.398 2.601-3.996 5.49-3.996 4.035 0 6.064 1.999 6.064 6.024v8.59h-2.92l-.371-1.827c-1.114 1.37-2.601 2.055-4.43 2.055-2.549 0-4.378-1.599-4.378-4.368 0-2.853 2.49-4.71 6.15-4.71h2.402v-.625c0-1.4-.829-2.112-2.517-2.112-1.288 0-2.115.542-2.488 1.655l-3.002-.686zm4.661 7.82c.887 0 1.66-.285 2.318-.827.684-.542 1.028-1.256 1.028-2.141v-.285h-2.373c-1.631 0-2.46.628-2.46 1.856 0 .77.543 1.397 1.487 1.397zM190.235 17.01c-1.118 2.739-3.291 4.11-6.551 4.11-2.261 0-3.977-.714-5.207-2.112-1.23-1.398-1.829-3.167-1.829-5.309 0-2.14.6-3.91 1.83-5.308 1.229-1.4 2.945-2.112 5.206-2.112 3.26 0 5.433 1.37 6.55 4.11l-3.175 1.284c-.772-1.571-1.915-2.37-3.375-2.37-2.175 0-3.319 1.77-3.319 4.396 0 2.627 1.144 4.396 3.319 4.396 1.46 0 2.603-.8 3.375-2.37l3.176 1.286M207.713 14.842h-9.928c.088 1.739 1.346 3.252 3.406 3.252 1.458 0 2.629-.743 3.488-2.227l2.862 1.06c-1.23 2.794-3.403 4.194-6.553 4.194-4.947 0-6.92-3.998-6.92-7.422 0-3.425 1.973-7.42 6.92-7.42 2.29 0 4.15.942 5.179 2.398a7.991 7.991 0 0 1 1.546 4.71v1.455zm-9.84-2.799h6.205c-.4-1.825-1.429-2.738-3.09-2.738-1.687 0-2.86 1.227-3.115 2.738z"></path>
</g>
</svg>